<svg width="1920" height="240" viewBox="0 0 1920 240" xmlns="http://www.w3.org/2000/svg"><path d="M 0,240 C 0,240 0,30 0,30 C 133.15789473684214,27.473684210526315 266.3157894736843,24.947368421052634 390,22 C 513.6842105263157,19.052631578947366 627.8947368421052,15.684210526315788 758,20 C 888.1052631578948,24.315789473684212 1034.1052631578948,36.31578947368421 1181,38 C 1327.8947368421052,39.68421052631579 1475.6842105263158,31.05263157894737 1599,28 C 1722.3157894736842,24.94736842105263 1821.157894736842,27.473684210526315 1920,30 C 1920,30 1920,240 1920,240 Z" fill="#12b488" opacity="0.075"/><path d="M 0,240 C 0,240 0,60 0,60 C 157.82775119617224,54.94736842105263 315.6555023923445,49.89473684210526 451,53 C 586.3444976076555,56.10526315789474 699.2057416267942,67.36842105263159 827,68 C 954.7942583732058,68.63157894736841 1097.5215311004783,58.63157894736842 1202,56 C 1306.4784688995217,53.36842105263158 1372.708133971292,58.10526315789473 1486,60 C 1599.291866028708,61.89473684210527 1759.645933014354,60.94736842105263 1920,60 C 1920,60 1920,240 1920,240 Z" fill="#12b488" opacity="0.15"/><path d="M 0,240 C 0,240 0,90 0,90 C 157.33014354066984,89.73205741626793 314.6602870813397,89.46411483253588 438,92 C 561.3397129186603,94.53588516746412 650.6889952153109,99.8755980861244 759,99 C 867.3110047846891,98.1244019138756 994.5837320574165,91.03349282296652 1125,91 C 1255.4162679425835,90.96650717703348 1388.9760765550238,97.99043062200957 1522,99 C 1655.0239234449762,100.00956937799043 1787.5119617224882,95.00478468899522 1920,90 C 1920,90 1920,240 1920,240 Z" fill="#12b488" opacity="0.22499999999999998"/><path d="M 0,240 C 0,240 0,120 0,120 C 117.99043062200957,117.69377990430621 235.98086124401914,115.38755980861244 354,116 C 472.01913875598086,116.61244019138756 590.066985645933,120.14354066985645 739,119 C 887.933014354067,117.85645933014355 1067.751196172249,112.03827751196172 1202,113 C 1336.248803827751,113.96172248803828 1424.928229665072,121.70334928229666 1537,124 C 1649.071770334928,126.29665071770334 1784.5358851674641,123.14832535885168 1920,120 C 1920,120 1920,240 1920,240 Z" fill="#12b488" opacity="0.3"/><path d="M 0,240 C 0,240 0,150 0,150 C 108.99521531100478,151.42583732057415 217.99043062200957,152.85167464114832 330,153 C 442.00956937799043,153.14832535885168 557.0334928229665,152.01913875598086 700,149 C 842.9665071770335,145.98086124401914 1013.8755980861247,141.07177033492823 1153,143 C 1292.1244019138753,144.92822966507177 1399.4641148325359,153.69377990430624 1522,156 C 1644.5358851674641,158.30622009569376 1782.267942583732,154.1531100478469 1920,150 C 1920,150 1920,240 1920,240 Z" fill="#12b488" opacity="0.375"/><path d="M 0,240 C 0,240 0,180 0,180 C 99.83732057416267,179.1196172248804 199.67464114832535,178.23923444976077 326,180 C 452.32535885167465,181.76076555023923 605.1387559808613,186.16267942583733 764,187 C 922.8612440191387,187.83732057416267 1087.7703349282297,185.11004784688996 1205,181 C 1322.2296650717703,176.88995215311004 1391.77990430622,171.39712918660288 1503,171 C 1614.22009569378,170.60287081339712 1767.11004784689,175.30143540669854 1920,180 C 1920,180 1920,240 1920,240 Z" fill="#12b488" opacity="0.44999999999999996"/><path d="M 0,240 C 0,240 0,210 0,210 C 139.18660287081337,207.4354066985646 278.37320574162675,204.8708133971292 421,208 C 563.6267942583733,211.1291866028708 709.6937799043062,219.95215311004782 837,217 C 964.3062200956938,214.04784688995218 1072.8516746411483,199.32057416267943 1176,199 C 1279.1483253588517,198.67942583732057 1376.8995215311006,212.76555023923444 1500,217 C 1623.1004784688994,221.23444976076556 1771.5502392344497,215.61722488038276 1920,210 C 1920,210 1920,240 1920,240 Z" fill="#12b488" opacity="0.525"/></svg>